<svg width="102" height="107" viewBox="0 0 102 107" fill="none" xmlns="http://www.w3.org/2000/svg">
<path fill-rule="evenodd" clip-rule="evenodd" d="M50.8068 2.84951C59.2446 3.73087 67.5495 4.01468 75.4673 7.05947C84.3807 10.4871 94.7638 13.3619 99.578 21.6045C104.393 29.849 100.571 40.1984 100.398 49.7429C100.227 59.106 103.417 69.2848 98.5661 77.2975C93.7249 85.2949 82.9889 86.7588 75.0239 91.6588C66.7931 96.7223 60.3707 105.283 50.8068 106.679C40.8766 108.128 30.7621 104.493 22.1283 99.3806C13.5452 94.2985 5.99844 87.0205 2.10412 77.8417C-1.62043 69.0631 0.647303 59.2687 1.0684 49.7429C1.47162 40.6217 0.745723 31.3535 4.52663 23.0418C8.50042 14.306 14.1782 5.41654 22.9786 1.57686C31.6361 -2.20045 41.4112 1.86812 50.8068 2.84951Z" fill="#F39237"/>
</svg>
